<svg id="Layer_1" data-name="Layer 1" xmlns="http://www.w3.org/2000/svg" viewBox="0 0 500 195.2"><path d="M243.55,146.35c95.46,0,180.9,12.48,238.09,32.14-61-16.54-145.15-25.68-238.09-25.68S66.46,162,5.47,178.49C62.65,158.83,148.09,146.35,243.55,146.35Z"/><path d="M220.37,174.61l.33-2.15h-9.2l2.17,2.14v10.45a8.76,8.76,0,0,1-1,4.52h8.27a11.81,11.81,0,0,1-.57-4.52Z"/><path d="M165.31,175.66h6.94v9.39a8.73,8.73,0,0,1-1,4.52h8.27a11.81,11.81,0,0,1-.57-4.52v-9.39h5.17l.38.66,2.38-3.81H167.28Z"/><path d="M343.54,175.66h6.93v9.39a8.86,8.86,0,0,1-1,4.52h8.26a12,12,0,0,1-.57-4.52v-9.39h5.17l.39.66,2.37-3.81H345.5Z"/><path d="M91.42,186.44H84c-.56,0-1-.37-1-1.28V174.61l.33-2.15h-9.2l2.17,2.14v9h0a5.72,5.72,0,0,0,5.65,5.94H98V172.43H91.42Z"/><path d="M276.9,172.48h-8.29l-7,11.41L255,172.48h-7l2.18,2.12v10.45a8.73,8.73,0,0,1-1,4.52h6.17a12.1,12.1,0,0,1-.56-4.52v-3.82l4.06,7.16-.68,1.12h6.15l4.6-7.69v3.23a8.86,8.86,0,0,1-1,4.52h8.26a11.81,11.81,0,0,1-.57-4.52V173.9Z"/><path d="M398.15,186.49c0-.45,0-4.68,0-4.68h9.09l-1.44-2.56h-7.65v-4h7.44l1,1.7,2.79-4.45H389.24l2.16,2.13v10.46a8.84,8.84,0,0,1-1,4.53h19l-1.68-3.12Z"/><path d="M321.41,185.81l-7.72-13.36h-7.11l1.21,1.68-6.64,10.94a32.15,32.15,0,0,1-3.49,4.52H302c.24-.52,1.25-2.35,1.73-3.23l1.17-2h8.65l1,1.89a11.64,11.64,0,0,1,1.31,3.35H324A24.84,24.84,0,0,1,321.41,185.81Zm-15-4,3-5.09,2.78,5.09Z"/><path d="M134.16,186.45c-.13-.59-.27-1.27-.27-1.39V174.6l.33-2.15H125l2.18,2.14v10.47a8.77,8.77,0,0,1-1,4.53h18.14l-1.68-3.15Z"/><path d="M62.9,78.57c3.36.8,4.81,3.23,4.79,7.5-.06,16.2.08,33.12,0,49.32,0,3.92-1.69,7-5.06,8.7-.36.17-.66.43-.66,1.26s.18,1,.72.84c4.56-1.08,10.2-2.17,14.77-3.17.54-.12.72-.33.72-1.13s-.29-.91-.65-.93c-3.3-.17-5.69-2.24-5.69-6.23V93.47c0-.55.22-.82.34-.82s.3.25.42.7c4.54,17.33,8,29,12.51,45.17.65,2.15,1.07,2.42,2.76,2.14s2.22-.54,2.78-3q5.63-24.88,11.27-48.43c.06-.34.54-.36.54,0v44.13c0,2.17-1.1,2.88-4.17,3.75-.36.14-.67.35-.67,1.11s.18.9.72.82q9.57-1.45,19.16-2.68a1.66,1.66,0,0,0,.83,0c5.58-.61,12.36-1.19,17.94-1.71.84-.08,1.12-.19,1.12-.89s-.2-.84-.83-.94c-4.72-.58-6.58-1.75-6.57-4a6,6,0,0,1,.43-2c.83-2.58,1.65-5.14,2.48-7.7,4-.28,7.29-.55,10.92-.81v-3.48c-3.3.21-6.18.44-9.79.67,2.31-7.09,3.9-12.16,6.21-19.1,1.28,3.81,2.42,7,3.58,10.21v-32a2,2,0,0,0-2.07,1.69c-5.51,16.44-11,33.27-16.55,50.61a11.28,11.28,0,0,1-6.9,7.49l-.19,0c-3.37-.06-4.19-.34-4.18-2.54V81.18c0-2.19,1.12-2.61,4.49-3.12.36-.08.66-.24.67-1s-.18-.77-.72-.76c-5.14,0-11.38,0-16.52,0-1.14,0-1.27.69-1.52,1.61-3.3,13.5-6.06,26-9.36,40.11-3.84-13.36-7.13-25.75-11-39.92-.24-.88-.48-1.81-1.32-1.8-5.24,0-10.48,0-15.72,0-.54,0-.72.31-.72,1.14S62.53,78.48,62.9,78.57Z"/><path d="M5.66,129.33c2,6,4,18.8,4.85,23.35a2.75,2.75,0,0,0,2.09,2.11c5.22,2.36,13.93,1.44,21.22.6,19.31-2.24,28.6-12,28.65-26.6,0-14-8.24-22.1-22.34-26.23-12.7-3.74-17.49-7.82-17.28-13.34.22-5.76,4.7-9.63,14.24-9.7,7.08,0,17.33,6.89,20.94,16.69.2.67.39,1.05.89,1a2.19,2.19,0,0,0,.65-.21c.42-.11.49-.31.47-.69l0-.58c-1-4.67-2.49-14.12-2.91-17.86-.13-1.12-.31-1.49-1-1.49a6.69,6.69,0,0,0-1.06.19,14.73,14.73,0,0,1-3.06.29,8.91,8.91,0,0,1-1.59-.09,64.94,64.94,0,0,0-13.38-2c-16.35,0-26,8.68-26.64,21.69-.68,14,7,20.79,23.21,26.23,9.91,3.33,14.86,9.14,14.77,14.86-.1,6.52-5.3,11.11-13.66,12-6.39.69-18.8-5.23-26.73-21.06-.29-.78-.53-1.23-1.18-1.21a2.27,2.27,0,0,0-.72.26c-.44.24-.69.47-.61,1C5.51,128.88,5.63,129.1,5.66,129.33Z"/><path d="M186.93,128.27c-4.61,0-13.35-5-18-15.49-.16-.51-.31-.81-.78-.82a2.31,2.31,0,0,0-.54.13c-.33.15-.53.29-.51.66,0,.14.08.29.08.44a133.39,133.39,0,0,1,2.53,14.28c.09.59.38,1,1.34,1.4A40,40,0,0,0,186.25,132c14.44,0,21.93-5.95,22.31-16.14.39-10-6.15-16.29-17.19-20.12-9.58-3.34-13.11-6.62-13-10.64.17-4.26,3.51-6.58,10.83-6.58,5.68,0,13.38,6.42,16.17,13.92.15.51.29.81.7.82a2.31,2.31,0,0,0,.54-.13c.34-.07.4-.21.39-.5s0-.29,0-.43c-.71-3.56-1.92-11.27-2.2-14.17-.09-.87-.24-1.16-.78-1.19-.21,0-.47.06-.88.11a12.28,12.28,0,0,1-2.5.12,7.35,7.35,0,0,1-1.29-.12,51.61,51.61,0,0,0-10.14-2c-12.44-.67-19.41,5.3-19.77,14.81-.38,9.92,5.07,15.27,16.81,20,7.43,3,11.15,7.34,11,11.3C197.11,125.56,193.12,128.28,186.93,128.27Z"/><path d="M151.65,129.05a1.55,1.55,0,0,1,.14.75c0,.92-1,1.22-3.63,1.81-1,.24-1.11.56-1.12,1.17s.21.75.83.7q12-1,24-1.72c.63,0,.77-.27.77-.94,0-.52-.14-.73-.69-.78-2.92-.2-4.94-1.19-5.69-3.1-6.6-16.5-13.17-33.32-19.73-50.64a2.29,2.29,0,0,0-1.27-1.53v35.89c.45,1.27.91,2.58,1.39,4l-1.39.08v3.47l2.55-.16Q149.74,123.58,151.65,129.05Z"/><path d="M234,128.05a.73.73,0,0,0-.7.86c0,.65.19.79.76.79,7.06,0,13.54.16,20.59.35.58,0,.77-.12.77-.78a.76.76,0,0,0-.71-.88c-3.58-.53-4.6-.91-4.6-2.86Q250,103,250,80.45c0-2,1-2.3,4.58-2.73a.74.74,0,0,0,.69-.87c0-.65-.19-.84-.76-.84H234c-.57,0-.77.18-.77.82s.32.79.71.87c3.24.36,4.26.86,4.26,2.73q0,9.93,0,19.87c-4.93,0-8.16,0-13.09,0q0-9.91,0-19.85c0-1.87,1-2.37,4.27-2.73a.75.75,0,0,0,.7-.87c0-.64-.2-.82-.77-.82h-20.5c-.57,0-.76.18-.76.83s.31.8.69.87c3.57.43,4.59.79,4.58,2.74q0,22.5-.05,45c0,2-1,2.33-4.61,2.84a.76.76,0,0,0-.7.88c0,.65.19.79.76.78,7.05-.17,13.54-.25,20.59-.26.58,0,.77-.14.77-.79s-.32-.79-.71-.86c-3.25-.36-4.28-.85-4.28-2.72q0-10.65,0-21.29c4.93,0,8.16,0,13.09,0q0,10.65,0,21.3C238.25,127.22,237.23,127.71,234,128.05Z"/><path d="M483.67,146a5.14,5.14,0,1,0,5.13,5.14A5.14,5.14,0,0,0,483.67,146Z"/><path d="M300.35,102.67c-.29,0-.73-.1-.73-.1s.61-.07.73-.07c5.93.07,10.18-5.61,10.14-12.93,0-8.82-6.24-13.57-15.92-13.56h-24c-.39,0-.77.19-.77.84s.33.8.71.87c3.56.44,4.64.81,4.65,2.77,0,15.13,0,30.25,0,45.38,0,2-1,2.29-4.53,2.61-.39.06-.71.2-.71.85s.2.8.77.82q12.57.39,25.11,1.11c11.69.7,17.73-3.46,17.68-14.45C313.45,109.31,307.69,102.73,300.35,102.67ZM287.54,78.86s1.57-.14,3.42-.13c4,0,7.78,4.32,7.81,10.79,0,7.13-2.5,11.73-6.52,11.62-.76,0-4.71-.41-4.71-.41ZM292.86,128c-1.4-.08-5.32-1.22-5.32-3.12V104l.9,0a20.71,20.71,0,0,1,3.76.33c6,1.34,9,5.92,9,12.4C301.28,126,297.4,128.23,292.86,128Z"/><path d="M367.37,135.34c-1.5,0-3.9-1.2-6.74-5.83-3.95-6.44-12.16-20.3-14-25.4,5.95-1.73,8.82-6.23,8.82-14.18,0-8.79-6.63-13.92-17-13.92H312.63c-.41,0-.82.33-.82,1a.78.78,0,0,0,.75.9c3.83.45,4.93.82,4.93,2.85v47.16c0,2-1.1,2.33-4.93,2.55-.41.06-.75.19-.75.86s.21.84.82.88l22.64,1.35c.61,0,.82-.1.82-.77a.84.84,0,0,0-.75-1c-3.49-.58-4.59-1.17-4.59-3.12V105.45a4.7,4.7,0,0,1,4.4,2.92c2.93,6.16,7.41,14.33,10.78,20.29,2.71,4.82,8.39,7.57,15.12,8.18a30.38,30.38,0,0,0,5.85.09,1.15,1.15,0,0,0,1.17-.82C368.21,135.47,367.78,135.34,367.37,135.34Zm-31.55-33.56c-2.88,0-5.07-.6-5.07-3.07V79s1.78-.15,3.77-.15c4.58,0,8.34,4.36,8.34,10.89C342.86,97.13,340,101.78,335.82,101.78Z"/><path d="M420.71,124.38c.48,5.33.42,15.67.23,19.67a2.32,2.32,0,0,0,1.39,2.18c4.23,3.09,14.6,6.68,21.72,7.86,20.75,3.42,31.51-4.42,31-20.65-.48-15.39-10.58-25.36-26-31.19-12.61-4.78-17.15-9-17.08-14.14.07-5.39,4.11-8.93,13.36-8.85,7.26.07,19.65,7.45,23,17.92.18.73.36,1.14.95,1.17a2.76,2.76,0,0,0,.78-.17c.49-.08.59-.28.6-.69,0-.2,0-.41,0-.61-.78-5-1.82-15-2-19-.07-1.17-.25-1.56-1-1.56a7.76,7.76,0,0,0-1.23.19,18.16,18.16,0,0,1-3.45.27,9.71,9.71,0,0,1-1.75-.1,93,93,0,0,0-16.1-2c-15.45,0-23.63,7.78-23.92,19.47-.31,12.56,6.49,19.74,21.78,27.35,10.29,5.1,15.84,12.13,15.93,18.13.1,6.85-5.43,10.24-14.1,8.91-6.28-1-18.16-9.78-21.87-24.5-.08-.71-.21-1.11-.79-1.17a2.21,2.21,0,0,0-.68.12c-.44.15-.71.32-.77.81C420.67,124,420.73,124.19,420.71,124.38Z"/><path d="M132.6,61.28a4,4,0,0,0,2.67,2.17,50.41,50.41,0,0,0,8.55,1.6V56a30.31,30.31,0,0,1-4.86-3.6h-8.18C131.55,56,132.2,59.46,132.6,61.28Z"/><path d="M143.82,35.52V18.08a6.88,6.88,0,0,1-1.07-3.9,6.54,6.54,0,0,1,1.07-3.57V4.17c-7.33,1.41-11.46,6.18-11.39,12.77C132.52,24.66,136,30.3,143.82,35.52Z"/><path d="M154.26,8c6.57,1,14.72,7.73,17.43,15.64.15.45.28.84.65.87a2.07,2.07,0,0,0,.73-.15c.24-.14.19-.3.06-.95-.64-3.12-1.59-11-1.9-14-.1-.88-.36-1.25-.85-1.35a4.67,4.67,0,0,0-1.35.1,6.86,6.86,0,0,1-1.83-.07A7.48,7.48,0,0,1,166,7.74a67.4,67.4,0,0,0-11.51-3.48,32.21,32.21,0,0,0-9.18-.32V9.16C147.18,7.83,150.18,7.36,154.26,8Z"/><path d="M173.64,52.37h-9.85v.26c-.06,5-4.83,7.69-11.71,6.45a24.17,24.17,0,0,1-6.81-2.32v8.41c2.24.17,4.49.22,6.88.22C162.57,65.39,171.66,60.9,173.64,52.37Z"/><path d="M127.93,41.38a83.57,83.57,0,0,1,2.65,10.08H138a46.33,46.33,0,0,1-7.93-10.59c-.44-.79-.5-1.08-1.1-1.11a2.57,2.57,0,0,0-.66.17c-.4.18-.63.37-.56.86C127.78,41,127.9,41.19,127.93,41.38Z"/><path d="M163.71,51.46h10.11A16.5,16.5,0,0,0,174,48.6c-.1-9.25-5.67-17.2-16.58-21.55-5.9-2.36-9.88-4.7-12.19-7.12V36.46a75.53,75.53,0,0,0,7,3.83C159.3,43.71,163.13,47.47,163.71,51.46Z"/><path d="M175.5,10.7c2.29.07,5,.62,5,3.89V44.23a26.4,26.4,0,0,0,1,7.23h14.27A16.5,16.5,0,0,1,194,43.6V15c0-3.25,2.7-3.62,4.93-3.56.57,0,.77-.31.77-.88,0-.78-.26-1-.75-1l-23.47-.75c-.5,0-.77.2-.77,1C174.71,10.33,174.92,10.68,175.5,10.7Z"/><path d="M196.31,52.37H181.77c2.48,7.4,8.67,12.18,18.49,12.18S215.14,59.91,217,52.37h-5.38c-2,3.77-5.51,4.15-8,4.14A8.74,8.74,0,0,1,196.31,52.37Z"/><path d="M208.51,11.69c2.2.06,4.6.51,4.6,3.72V44.56a18.45,18.45,0,0,1-1.1,6.9h5.16a34.11,34.11,0,0,0,.63-6.85V15.54c0-3.2,2.78-3.48,5-3.41.55,0,.75-.32.75-.88,0-.77-.25-1-.73-1l-14.3-.46c-.48,0-.74.2-.74,1C207.74,11.32,207.94,11.67,208.51,11.69Z"/><path d="M225.27,64.5h23.66c.51,0,.78-.24.78-1,0-.59-.21-1-.8-1-2.3,0-5.08-.38-5.08-3.75V52.37H230.37v6.38c0,3.37-2.78,3.75-5.08,3.75-.59,0-.79.36-.79,1C224.5,64.26,224.76,64.5,225.27,64.5Z"/><path d="M249.39,10.15H225.27c-.51,0-.77.24-.77,1,0,.59.2,1,.79,1,2.3,0,5.08.38,5.08,3.75V51.46h13.46V42.13c12.43,3.92,24-3.81,24-17C267.87,14.25,258,10.15,249.39,10.15Zm-2.24,28.49c-.26,0-3.22-.19-3.32-1V12.8c7.59,0,11.29,4.6,11.29,12.68C255.12,33.93,252,38.05,247.15,38.64Z"/><path d="M307.73,51.46c.19-1,.36-2,.52-2.78s-.26-.89-.54-1-.69-.09-1,.6c-.16.4-.76,1.67-1.53,3.13Z"/><path d="M271.22,52.37V59c0,3.2-2.94,3.58-5.37,3.58-.62,0-.83.34-.83.9,0,.77.28,1.1.81,1.1h39.36c.41,0,.61-.44.66-.9.32-2.88,1.06-7.5,1.72-11.26h-2.83a28.49,28.49,0,0,1-2.51,4c-1.2,1.47-4.25,4.85-7.84,5-.79,0-5.56.19-6.77,0-2.43-.33-3-1-3-4.18v-4.8Z"/><path d="M266.08,12.19c2.43,0,5.14.2,5.14,3.4V51.46h13.36v-15l.36,0c1.2,0,4.61-.31,6.51.46,3.19,1.29,4.69,6.06,5.39,8.83.12.47.28.57.6.58H298c.28,0,.38-.22.38-.55V23.38c0-.34,0-.66-.37-.65h-.68c-.24,0-.34.18-.45.57-.32,1.2-1.85,8.12-5.69,9.87a30.18,30.18,0,0,1-6.25.92h-.36V12.78c0-.22.06-.28.27-.29l8.13-.21c3.18-.08,6.52,1.44,7.8,2.91,2.13,2.43,4,7.69,4.22,8.49a.41.41,0,0,0,.52.31l.66-.24c.26-.11.19-.54.14-.83L304.84,10.2c0-.85-.27-1.28-1.51-1.24l-37.5,1.17c-.53,0-.81.24-.81,1C265,11.7,265.15,12.19,266.08,12.19Z"/><path d="M314.29,52.37V58.9c0,3.25-2.33,3.64-4.21,3.65-.48,0-.65.35-.65.91,0,.78.22,1,.63,1l22.29,0c.46,0,.7-.24.71-1.05,0-.6-.18-1-.71-1-2.08,0-4.41-.36-4.39-3.72V52.37Z"/><path d="M339.62,52.37c1.05,2.6,1.83,4.57,1.83,4.57a12.83,12.83,0,0,0,9.48,7.72c2.7.54,12.26.29,14,.15.65-.1.7-.57.79-1a.74.74,0,0,0-.71-.91,10.36,10.36,0,0,1-8.57-5.16c-.48-.79-1.46-2.82-2.62-5.36Z"/><path d="M355.36,19.91c0-10.93-6.68-16.07-20.89-14.21L310.06,8.82c-.41.06-.64.32-.64,1.12,0,.58.7.91,1.18.85,1.92-.26,3.7-.19,3.69,3.17v37.5H328V36.84l.84-.05a5.88,5.88,0,0,1,5.67,2.91c.38.76,2.89,7,4.79,11.76h14.11C351,46.14,348,39.06,347,36,354.44,31.88,355.36,25.6,355.36,19.91ZM333.61,33.07c-3,.23-5.5-.56-5.65-2.65V10.33c0-.75.19-.95.78-1l1.63-.22c3.35-.44,11.78.57,11.68,10.45C342,27.74,338.5,32.7,333.61,33.07Z"/><path d="M370.94,130.76V119.32h-8.65A29.84,29.84,0,0,0,370.94,130.76Z"/><path d="M360.49,113.49h10.45V84.59a29.63,29.63,0,0,0-11,23.08A30.07,30.07,0,0,0,360.49,113.49Z"/><path d="M419.31,107.67A29.7,29.7,0,0,0,389.62,78a31.06,31.06,0,0,0-3.64.23v35.29h32.76A30.07,30.07,0,0,0,419.31,107.67Z"/><path d="M416.94,119.32H386v17.83a31.06,31.06,0,0,0,3.64.23A29.72,29.72,0,0,0,416.94,119.32Z"/><path d="M478.69,78.88v7.2a1.76,1.76,0,0,1,0,.31H481c0-.12,0-.23,0-.32V78.88h2.63a2.65,2.65,0,0,1,.53.05V76.78h-8.43v2.13a3.84,3.84,0,0,1,.5,0Z"/><path d="M493.58,86.39h2.25c0-.11,0-.21,0-.31v-9.3h-2.77l-2.26,6.39-2.19-6.39h-2.76v9.3c0,.1,0,.2,0,.31h2.26c0-.12,0-.23,0-.32V81.74l1.62,4.65h2.21l1.7-4.62v4.3C493.59,86.17,493.59,86.28,493.58,86.39Z"/></svg>